<?xml version="1.0" standalone="no"?><!-- Generator: Gravit.io --><svg xmlns="http://www.w3.org/2000/svg" xmlns:xlink="http://www.w3.org/1999/xlink" style="isolation:isolate" viewBox="0 0 500 500" width="500" height="500"><path d=" M 250.724 479.673 C 369.098 489.239 442.667 344 411 269" fill="none" vector-effect="non-scaling-stroke" stroke-width="27.501" stroke="rgb(53,49,49)" stroke-linejoin="miter" stroke-linecap="round" stroke-miterlimit="3"/><path d=" M 189.146 246.514 L 302.737 246.514 C 345.885 388.94 345.909 473.459 302.737 500 L 189.146 500 C 145.135 470.59 145.159 386.118 189.146 246.514 Z " fill="rgb(53,49,49)"/><g><g><mask id="_mask_33OUArsN5ykJ8kw6B88fWFQAFp0StX1R"><path d=" M 131.516 138.901 L 127.568 37 L 219.913 60.164 L 131.516 138.901 Z " fill="white" stroke="none"/></mask><path d=" M 131.516 138.901 L 127.568 37 L 219.913 60.164 L 131.516 138.901 Z " fill="rgb(235,235,235)" mask="url(#_mask_33OUArsN5ykJ8kw6B88fWFQAFp0StX1R)" vector-effect="non-scaling-stroke" stroke-width="20" stroke="rgb(53,49,49)" stroke-linejoin="miter" stroke-linecap="square" stroke-miterlimit="3"/><mask id="_mask_x5b9kZJOi1lW9zjTteJkCFfh31eIUskj"><path d=" M 360.362 149.065 L 373.47 45.272 L 277.03 60.724 L 360.362 149.065 Z " fill="white" stroke="none"/></mask><path d=" M 360.362 149.065 L 373.47 45.272 L 277.03 60.724 L 360.362 149.065 Z " fill="rgb(235,235,235)" mask="url(#_mask_x5b9kZJOi1lW9zjTteJkCFfh31eIUskj)" vector-effect="non-scaling-stroke" stroke-width="20" stroke="rgb(53,49,49)" stroke-linejoin="miter" stroke-linecap="square" stroke-miterlimit="3"/></g><ellipse vector-effect="non-scaling-stroke" cx="245.94170201772806" cy="163.41302227314873" rx="118.37339536397258" ry="110.60140475926727" fill="rgb(53,49,49)"/><g><g><circle vector-effect="non-scaling-stroke" cx="193.92914950931603" cy="149.06473192600055" r="37.66426216126399" fill="rgb(255,255,255)"/><ellipse vector-effect="non-scaling-stroke" cx="193.929149509316" cy="149.0647319260005" rx="6.070850490683966" ry="22.064731926000512" fill="rgb(53,49,49)"/></g><g><circle vector-effect="non-scaling-stroke" cx="297.9542545261403" cy="149.06473192600055" r="37.66426216126399" fill="rgb(255,255,255)"/><ellipse vector-effect="non-scaling-stroke" cx="297.9542545261403" cy="149.06473192600055" rx="6.050000000000011" ry="22.05000000000001" fill="rgb(53,49,49)"/></g></g><g><path d=" M 239.203 201.975 L 234.658 195.321 L 230.113 188.668 C 226.394 183.224 228.727 178.804 235.32 178.804 L 245.942 178.804 L 256.563 178.804 C 263.156 178.804 265.49 183.224 261.771 188.668 L 257.225 195.321 L 252.68 201.975 C 248.961 207.419 242.922 207.419 239.203 201.975 Z " fill="rgb(235,235,235)"/><line x1="245.942" y1="194.724" x2="245.942" y2="226.187" vector-effect="non-scaling-stroke" stroke-width="4" stroke="rgb(235,235,235)" stroke-linejoin="miter" stroke-linecap="round" stroke-miterlimit="3"/><path d=" M 225.615 240.535 C 229.347 235.598 236.144 230.838 245.942 226.187" fill="none" vector-effect="non-scaling-stroke" stroke-width="4" stroke="rgb(235,235,235)" stroke-linejoin="miter" stroke-linecap="round" stroke-miterlimit="3"/><path d=" M 266.268 240.535 C 261.659 233.025 254.881 228.264 245.942 226.187" fill="none" vector-effect="non-scaling-stroke" stroke-width="4" stroke="rgb(235,235,235)" stroke-linejoin="miter" stroke-linecap="round" stroke-miterlimit="3"/></g></g></svg>